<svg xmlns="http://www.w3.org/2000/svg" width="64" height="64" fill="none" xmlns:v="https://vecta.io/nano"><path d="M31 12c-11.602 0-21 9.176-21 20.506 0 9.074 6.011 16.738 14.359 19.455 1.05.18 1.444-.436 1.444-.974l-.026-3.819c-5.276.948-6.641-1.256-7.061-2.41-.236-.59-1.26-2.409-2.152-2.896-.735-.384-1.785-1.333-.026-1.358 1.654-.026 2.835 1.487 3.229 2.102 1.89 3.102 4.909 2.23 6.116 1.692.184-1.333.735-2.23 1.339-2.743-4.672-.513-9.555-2.281-9.555-10.125 0-2.23.814-4.076 2.153-5.511-.21-.513-.945-2.614.21-5.434 0 0 1.759-.538 5.775 2.102 1.68-.461 3.465-.692 5.25-.692s3.57.231 5.25.692c4.016-2.666 5.775-2.102 5.775-2.102 1.155 2.82.42 4.921.21 5.434 1.339 1.435 2.152 3.255 2.152 5.511 0 7.869-4.909 9.612-9.581 10.125.761.641 1.417 1.871 1.417 3.794l-.026 5.639c0 .538.394 1.179 1.444.974 4.169-1.374 7.792-3.99 10.358-7.48A20.21 20.21 0 0 0 52 32.506C52 21.176 42.603 12 31 12z" fill="#abb2bf"/></svg>