<svg xmlns="http://www.w3.org/2000/svg" width="26" height="21" fill="none" xmlns:v="https://vecta.io/nano"><path d="M10.56 15.616c0 1.429-.523 2.635-1.568 3.616-1.024.981-2.272 1.472-3.744 1.472-1.515 0-2.773-.491-3.776-1.472C.491 18.251 0 17.045 0 15.616c0-.683.096-1.408.288-2.176s.576-1.76 1.152-2.976L6.4 0h4.8L8.544 11.584c.597.427 1.077.992 1.44 1.696.384.683.576 1.461.576 2.336zm14.24 0c0 1.429-.523 2.635-1.568 3.616s-2.293 1.472-3.744 1.472c-1.472 0-2.72-.491-3.744-1.472a4.86 4.86 0 0 1-1.504-3.616c0-.683.096-1.408.288-2.176s.587-1.76 1.184-2.976L20.704 0h4.768l-2.688 11.584a4.55 4.55 0 0 1 1.472 1.696c.363.683.544 1.461.544 2.336z" fill="#abb2bf"/></svg>